<svg version="1.1" id="Calque_1" xmlns="http://www.w3.org/2000/svg" x="0" y="0" viewBox="0 0 1833 174.5" xml:space="preserve"><style>.st1{fill:#D21F3C}.st2{enable-background:new}</style><path fill="#D21F3C" d="M12583-13852.7h-114.4l-.4-.3-115.6-79.6-18.9 13.1h-225.3l-27.5 19.2-.4.1-329.8.3-.3-.2-70.7-45.8-46.6 31.3-45.7-30-100.8 65.3-54.9-34.7-76.3 47.7-38.8-26.4-34.8 20.4-.8-.5-102.3-67.8-136.6 87.1h-166.5v-3h165.6l137.5-87.7 103.2 68.4 34.8-20.4 38.8 26.3 76.2-47.7 54.9 34.7 100.8-65.3 45.6 30 46.6-31.3 72 46.6 328.4-.3 27.5-19.3h225.3l19.8-13.7 116.9 80.5h113.5z" transform="translate(-10750 13999)"></path><path class="st1" d="M11180-13994.5h1v35h-1zM11587-13994.5h1v35h-1zM11678-13994.5h1v35h-1zM12352-13994.5h1v35h-1z" transform="translate(-10750 13999)"></path><g class="st2"><path class="st1" d="M11193-13992.1v5.3c0 .3.1.6.2.8.1.3.3.5.5.7.2.2.4.3.7.5.3.1.5.2.8.2.1 0 .3 0 .5-.1.2 0 .5-.2.9-.4v-3h.9v3.6c-.6.3-1.1.5-1.5.6-.4.1-.7.1-.8.1-.4 0-.8-.1-1.2-.3-.4-.2-.7-.4-.9-.7-.3-.3-.5-.6-.6-1-.1-.4-.2-.8-.2-1.2v-5.1c0-1 .3-1.8.9-2.4s1.2-.9 2.1-.9c.1 0 .3 0 .5.1.2 0 .4.1.6.2l1 .4-.3.9-1.1-.4c-.3-.1-.5-.2-.7-.2-.3 0-.5.1-.8.2-.3.1-.5.3-.7.5-.2.2-.3.5-.4.7-.4.3-.4.6-.4.9zM11203.3-13991.5l-.4.7c-.2-.1-.3-.2-.4-.2s-.2-.1-.3-.1c-.1 0-.2 0-.3-.1h-.3c-.2 0-.4 0-.7.1s-.6.3-.8.5v6.6h-.8v-7.1l-.4-.4.6-.6.6.5c.3-.3.6-.5.9-.5.3-.1.5-.1.7-.1.2 0 .4 0 .7.1.1.2.5.3.9.6zM11209-13984.8l.3.3-.6.6-.4-.4c-.3.2-.7.3-1.1.4s-.7.1-.9.1c-.3 0-.6-.1-.8-.2-.3-.1-.5-.3-.7-.5-.2-.2-.3-.5-.4-.7s-.2-.6-.2-.9v-.9c0-.3.1-.6.2-.9.1-.3.3-.5.4-.7.2-.2.4-.4.7-.5.3-.1.5-.2.8-.2h.3c.2 0 .3 0 .5.1.2 0 .4.1.5.1s.3.1.5.2v-.5c0-.2 0-.5-.1-.7s-.2-.5-.4-.6c-.1-.2-.3-.3-.5-.5-.2-.1-.4-.2-.7-.2-.1 0-.2 0-.5.1s-.4.1-.7.2c-.3.1-.6.1-.9.2l-.2-.8c.4-.1.7-.2 1-.2.3-.1.5-.1.8-.2.2-.1.4-.1.5-.1.3 0 .7.1 1 .2s.6.4.8.6c.2.3.4.6.5.9.1.3.2.7.2 1l.1 4.7zm-.9-3.1l-.1-.1c-.1-.1-.2-.1-.4-.2s-.4-.1-.6-.2-.5-.1-.7-.1c-.2 0-.4 0-.5.1-.2.1-.3.2-.4.3-.1.1-.2.3-.3.4-.1.2-.1.3-.1.5v1c0 .2 0 .4.1.5.1.2.2.3.3.4.1.1.3.2.4.3.2.1.3.1.5.1s.3 0 .6-.1c.2-.1.4-.1.6-.2.2-.1.5-.2.7-.3v-2.4zM11215.6-13990.8c.1.3.2.5.2.8v6h-.8v-5.7c0-.5-.1-1-.4-1.2s-.6-.4-1-.4c-.2 0-.5 0-.8.1-.3.1-.7.2-1.1.5v6.8h-.8v-7.2l-.4-.3.6-.6.5.5c.6-.3 1.1-.5 1.7-.5.5 0 .9.1 1.3.3s.8.4 1 .9zM11221.7-13991.7v-3.5h.8v10.4l.4.4-.6.6-.5-.5c-.3.2-.7.3-1.1.4-.4.1-.7.1-.9.1-.3 0-.6-.1-.8-.2-.3-.1-.5-.3-.7-.5-.2-.2-.3-.4-.5-.7-.1-.3-.2-.6-.2-.9v-3.8c0-.3.1-.6.2-.9.1-.3.3-.5.5-.7.2-.2.4-.4.7-.5.3-.1.5-.2.8-.2.2 0 .4 0 .7.1s.7.2 1.2.4zm-.1 6.5v-5.5c-.4-.2-.7-.4-1.1-.5-.3-.1-.6-.1-.8-.1-.4 0-.7.1-.9.4-.3.3-.4.6-.4 1v3.9c0 .2 0 .4.1.5.1.2.2.3.3.4.1.1.3.2.4.3.2.1.3.1.5.1h.4c.2 0 .4-.1.6-.1.2 0 .4-.1.5-.2.3-.1.4-.2.4-.2zM11230.7-13995.4c.4 0 .7 0 .8.1.2.1.3.2.4.2.2.1.5.4.7.6.2.3.4.6.5.9.1.4.2.7.2 1.1 0 .5-.1.9-.2 1.4-.1.5-.4.9-.8 1.2.3.2.5.4.7.6.2.2.3.4.4.6.1.2.2.4.2.7 0 .2.1.5.1.7 0 .4-.1.8-.2 1.2-.1.4-.2.6-.4.8-.1.2-.2.3-.3.4-.2.2-.4.4-.7.5s-.6.2-1.1.2h-2.9v-10.7c.4-.2.8-.3 1.1-.4.3-.1.5-.1.6-.2.3.2.6.1.9.1zm1.6 3.1c0-.3-.1-.6-.1-.8-.1-.3-.2-.5-.3-.6s-.2-.3-.4-.4h-.1c-.1 0-.1-.1-.2-.1-.1-.1-.3-.1-.6-.1-.1 0-.3 0-.5.1-.2 0-.6.2-1 .4v3.9h1.6c.3 0 .6-.1.8-.2.2-.1.4-.3.5-.5.1-.2.2-.4.3-.7s0-.7 0-1zm-3.3 3.1v4.3h2c.3 0 .6-.1.8-.2.2-.1.4-.3.5-.5.1-.2.2-.4.3-.7.1-.3.1-.5.1-.8 0-.3 0-.6-.1-.8-.1-.3-.1-.5-.3-.7s-.3-.4-.5-.5c-.2-.1-.5-.2-.8-.2h-2zM11235.3-13989.9c0-.3.1-.6.2-.9s.3-.5.5-.7c.2-.2.4-.4.7-.5.3-.1.5-.2.9-.2h.5c.3 0 .6.1.8.2.3.1.5.3.7.5.2.2.4.4.5.7s.2.6.2.9v.5c0 .4-.1.8-.2 1.1-.2.3-.4.6-.7.7-.3.2-.6.3-1 .4s-.8.1-1.2.1h-1v1c.1.4.3.8.6 1 .3.3.7.4 1.1.4 0 0 .2 0 .4-.1s.5-.1.7-.2c.3-.1.6-.1 1-.2l.2.8c-.4.1-.8.2-1.1.2-.3.1-.5.1-.8.1-.3 0-.4.1-.5.1-.3 0-.7-.1-1-.2-.3-.1-.6-.3-.8-.5-.2-.2-.4-.5-.6-.8-.1-.3-.2-.6-.2-1v-3.4zm2.7 2c.2 0 .4 0 .6-.1.2-.1.3-.2.4-.3s.2-.3.3-.5c.1-.2.1-.4.1-.5v-.7c0-.3 0-.5-.1-.6-.1-.2-.2-.3-.4-.4-.2-.1-.3-.2-.5-.2s-.4-.1-.6-.1c-.2 0-.4 0-.6.1-.2.1-.3.2-.5.3s-.3.3-.3.4-.1.4-.1.6v2.1l1.7-.1zm.2-5.5h-.8l1.6-2.4h1l-1.8 2.4zM11246.6-13990.8c.1.3.2.5.2.8v6h-.8v-5.7c0-.5-.1-1-.4-1.2s-.6-.4-1-.4c-.2 0-.5 0-.8.1-.3.1-.7.2-1.1.5v6.8h-.8v-7.2l-.4-.3.6-.6.5.5c.6-.3 1.1-.5 1.7-.5.5 0 .9.1 1.3.3s.8.4 1 .9zM11253.4-13984.8l.3.3-.6.6-.4-.4c-.3.2-.7.3-1.1.4s-.7.1-.9.1c-.3 0-.6-.1-.8-.2-.3-.1-.5-.3-.7-.5-.2-.2-.3-.5-.4-.7s-.2-.6-.2-.9v-.9c0-.3.1-.6.2-.9.1-.3.3-.5.4-.7.2-.2.4-.4.7-.5.3-.1.5-.2.8-.2h.3c.2 0 .3 0 .5.1.2 0 .4.1.5.1s.3.1.5.2v-.5c0-.2 0-.5-.1-.7s-.2-.5-.4-.6c-.1-.2-.3-.3-.5-.5-.2-.1-.4-.2-.7-.2-.1 0-.2 0-.5.1s-.4.1-.7.2c-.3.1-.6.1-.9.2l-.2-.8c.4-.1.7-.2 1-.2.3-.1.5-.1.8-.2.2-.1.4-.1.5-.1.3 0 .7.1 1 .2s.6.4.8.6c.2.3.4.6.5.9.1.3.2.7.2 1l.1 4.7zm-.8-3.1l-.1-.1c-.1-.1-.2-.1-.4-.2s-.4-.1-.6-.2-.5-.1-.7-.1c-.2 0-.4 0-.5.1-.2.1-.3.2-.4.3-.1.1-.2.3-.3.4-.1.2-.1.3-.1.5v1c0 .2 0 .4.1.5.1.2.2.3.3.4.1.1.3.2.4.3.2.1.3.1.5.1s.3 0 .6-.1c.2-.1.4-.1.6-.2.2-.1.5-.2.7-.3v-2.4zM11259.5-13991.5l-.4.7c-.2-.1-.3-.2-.4-.2-.1-.1-.2-.1-.3-.1-.1 0-.2 0-.3-.1h-.3c-.2 0-.4 0-.7.1s-.6.3-.8.5v6.6h-.8v-7.1l-.4-.4.6-.6.6.5c.3-.3.6-.5.9-.5.3-.1.5-.1.7-.1.2 0 .4 0 .7.1 0 .2.4.3.9.6zM11260.4-13989.9c0-.3.1-.6.2-.9s.3-.5.5-.7c.2-.2.4-.4.7-.5.3-.1.5-.2.9-.2h.5c.3 0 .6.1.8.2.3.1.5.3.7.5.2.2.4.4.5.7s.2.6.2.9v.5c0 .4-.1.8-.2 1.1-.2.3-.4.6-.7.7-.3.2-.6.3-1 .4s-.8.1-1.2.1h-1v1c.1.4.3.8.6 1 .3.3.7.4 1.1.4 0 0 .2 0 .4-.1s.5-.1.7-.2c.3-.1.6-.1 1-.2l.2.8c-.4.1-.8.2-1.1.2-.3.1-.5.1-.8.1-.3 0-.4.1-.5.1-.3 0-.7-.1-1-.2-.3-.1-.6-.3-.8-.5-.2-.2-.4-.5-.6-.8-.1-.3-.2-.6-.2-1v-3.4zm2.7 2c.2 0 .4 0 .6-.1.2-.1.3-.2.4-.3s.2-.3.3-.5c.1-.2.1-.4.1-.5v-.7c0-.3 0-.5-.1-.6-.1-.2-.2-.3-.4-.4-.2-.1-.3-.2-.5-.2s-.4-.1-.6-.1c-.2 0-.4 0-.6.1-.2.1-.3.2-.5.3s-.3.3-.3.4-.1.4-.1.6v2.1l1.7-.1z" transform="translate(-10750 13999)"></path></g><g class="st2"><path class="st1" d="M11192-13967.3v-8.6c0-.4 0-.7.1-1 .1-.3.2-.5.4-.6.2-.2.4-.3.6-.4s.5-.1.7-.1h.3v.9h-.2c-.3 0-.6.1-.8.2-.2.2-.3.5-.3.9v8.8c0 .4.1.7.3.9.2.2.5.2.8.2h.2v.9h-.3c-.3 0-.5 0-.7-.1s-.4-.2-.6-.4c-.2-.2-.3-.4-.4-.6-.1-.3-.1-.6-.1-1zM11198.9-13971.9c.2-.2.3-.5.4-.8.1-.3.1-.5.1-.8 0-.3-.1-.6-.2-.8-.1-.3-.2-.5-.4-.7-.2-.2-.3-.4-.5-.5-.2-.1-.5-.2-.7-.2h-.2c-.1 0-.2 0-.3.1-.1 0-.3.1-.6.2s-.5.2-.9.4l-.4-.8 1.2-.5c.2-.1.3-.1.6-.2s.4-.1.6-.1c.4 0 .7.1 1 .2s.6.4.8.6c.2.3.4.6.5.9s.2.7.2 1.2c0 .4 0 .7-.1 1-.1.3-.2.6-.5 1-.3.5-.6 1-1 1.6-.3.5-.7 1-1 1.5-.4.5-.7 1.1-1.1 1.6h3.5v.9h-4.4v-1l3.4-4.8zM11206.6-13971.2c-.3-.2-.6-.4-.8-.8s-.3-.7-.3-1.1v-1.4c0-.4.1-.7.2-1 .1-.3.3-.5.6-.6.2-.2.5-.3.8-.3s.6-.1 1-.1c.3 0 .6 0 .9.1s.5.2.7.4.4.4.5.6.2.5.2.9v1.4c0 .4-.1.8-.3 1.1-.2.3-.5.6-.8.8.3.2.6.4.8.7.2.3.3.7.3 1.1v1.4c0 .3-.1.6-.2.8s-.2.5-.4.7c-.2.2-.4.4-.6.5-.2.1-.5.2-.8.2h-.8c-.3 0-.5-.1-.8-.2-.2-.1-.5-.3-.6-.5-.2-.2-.3-.4-.4-.7-.1-.3-.2-.5-.2-.8v-1.4c0-.4.1-.8.3-1.1.1-.3.3-.5.7-.7zm1-.5h.5c.4 0 .7-.1.9-.4s.4-.6.4-1v-1.2c0-.4-.1-.8-.4-1-.3-.2-.7-.4-1.1-.4-.2 0-.4 0-.6.1s-.4.1-.5.2c-.2.1-.3.2-.4.4-.1.2-.1.4-.1.6v1.2c0 .4.1.7.4 1 .2.4.5.5.9.5zm0 5.1h.5c.4 0 .7-.1.9-.4s.4-.6.4-1v-1.2c0-.2 0-.4-.1-.6-.1-.2-.2-.3-.4-.4-.1-.1-.3-.2-.5-.2-.2-.1-.4-.1-.6-.1-.4 0-.8.1-1.1.3-.3.2-.5.6-.5 1v1.2c0 .4.1.7.4 1 .3.2.6.4 1 .4zM11214.4-13976.5h.5c.3 0 .6.1.8.2.3.1.5.3.7.5.2.2.3.4.5.7s.2.6.2.9v6c0 .4-.1.7-.2 1-.1.3-.3.6-.5.8-.2.2-.5.4-.8.5-.3.1-.6.2-1 .2-.1 0-.2 0-.4-.1s-.5-.1-.8-.2c-.3-.1-.7-.2-1.1-.3l.2-.8c.4.1.7.2 1 .2.2.1.5.1.7.2s.3.1.4.1c.5 0 .9-.1 1.2-.4s.5-.7.5-1.2v-2.2c-.1.1-.2.2-.4.2s-.3.1-.5.1-.4.1-.5.1h-.4c-.3 0-.6-.1-.8-.2-.3-.1-.5-.3-.7-.5-.2-.2-.3-.4-.5-.7-.1-.3-.2-.6-.2-.9v-2.1c0-.3.1-.6.2-.9.1-.3.3-.5.5-.7.2-.2.4-.4.7-.5.1.1.4 0 .7 0zm0 5.7h.5c.4 0 .7-.1.9-.4.3-.3.4-.6.4-1v-2.2c0-.4-.2-.8-.4-1-.3-.2-.6-.3-1-.3-.2 0-.4 0-.6.1-.2 0-.4.1-.5.2-.1.1-.3.2-.4.4-.1.2-.1.4-.1.6v2.2c0 .4.1.7.4 1 .1.3.4.4.8.4zM11220.3-13971.2c-.3-.2-.6-.4-.8-.8s-.3-.7-.3-1.1v-1.4c0-.4.1-.7.2-1 .1-.3.3-.5.6-.6.2-.2.5-.3.8-.3s.6-.1 1-.1c.3 0 .6 0 .9.1s.5.2.7.4.4.4.5.6.2.5.2.9v1.4c0 .4-.1.8-.3 1.1-.2.3-.5.6-.8.8.3.2.6.4.8.7.2.3.3.7.3 1.1v1.4c0 .3-.1.6-.2.8s-.2.5-.4.7c-.2.2-.4.4-.6.5-.2.1-.5.2-.8.2h-.8c-.3 0-.5-.1-.8-.2-.2-.1-.5-.3-.6-.5-.2-.2-.3-.4-.4-.7-.1-.3-.2-.5-.2-.8v-1.4c0-.4.1-.8.3-1.1.1-.3.4-.5.7-.7zm1.1-.5h.5c.4 0 .7-.1.9-.4s.4-.6.4-1v-1.2c0-.4-.1-.8-.4-1-.3-.2-.7-.4-1.1-.4-.2 0-.4 0-.6.1s-.4.1-.5.2c-.2.1-.3.2-.4.4-.1.2-.1.4-.1.6v1.2c0 .4.1.7.4 1 .2.4.5.5.9.5zm0 5.1h.5c.4 0 .7-.1.9-.4s.4-.6.4-1v-1.2c0-.2 0-.4-.1-.6-.1-.2-.2-.3-.4-.4-.1-.1-.3-.2-.5-.2-.2-.1-.4-.1-.6-.1-.4 0-.8.1-1.1.3-.3.2-.5.6-.5 1v1.2c0 .4.1.7.4 1 .3.2.6.4 1 .4zM11230.2-13972c0-.2 0-.4-.1-.5-.1-.2-.2-.3-.4-.4-.2-.1-.3-.2-.5-.3-.2-.1-.4-.1-.6-.1h-.4c-.2 0-.3.1-.5.1s-.3.1-.5.2c-.1.1-.3.1-.4.2v6.8h-.8v-7.2l-.4-.4.6-.6.5.5c.3-.1.6-.3.8-.4.3-.1.6-.1.8-.1.5 0 .9.1 1.3.3.4.2.7.5.8.9.1-.3.3-.5.5-.6.2-.2.4-.3.6-.4.2-.1.4-.2.6-.2s.4-.1.6-.1c.4 0 .7.1 1 .2.3.1.5.3.7.5.2.2.3.5.4.7.1.3.1.5.1.8v5.9h-.8v-5.8c0-.2 0-.4-.1-.6 0-.2-.1-.3-.2-.5s-.2-.2-.4-.3c-.2-.1-.4-.1-.6-.1-.7 0-1.2.2-1.5.6-.3.4-.4.9-.4 1.6v5.2h-.8v-5.9zM11238.7-13966.3c-.1.3-.2.5-.4.6-.2.2-.4.3-.6.4s-.5.1-.7.1h-.3v-.9h.2c.3 0 .6-.1.8-.2.2-.2.3-.5.3-.9v-8.8c0-.4-.1-.7-.3-.9-.2-.2-.5-.2-.8-.2h-.2v-.9h.3c.3 0 .5 0 .7.1s.4.2.6.4c.2.2.3.4.4.6.1.3.1.6.1 1v8.6c0 .4 0 .7-.1 1z" transform="translate(-10750 13999)"></path></g><g class="st2"><path class="st1" d="M11516.7-13992.1v5.3c0 .3.1.6.2.8.1.3.3.5.5.7.2.2.4.3.7.5.3.1.5.2.8.2.1 0 .3 0 .5-.1.2 0 .5-.2.9-.4v-3h.9v3.6c-.6.3-1.1.5-1.5.6-.4.1-.7.1-.8.1-.4 0-.8-.1-1.2-.3-.4-.2-.7-.4-.9-.7-.3-.3-.5-.6-.6-1-.1-.4-.2-.8-.2-1.2v-5.1c0-1 .3-1.8.9-2.4s1.2-.9 2.1-.9c.1 0 .3 0 .5.1.2 0 .4.1.6.2l1 .4-.3.9-1.1-.4c-.3-.1-.5-.2-.7-.2-.3 0-.5.1-.8.2-.3.1-.5.3-.7.5-.2.2-.3.5-.4.7-.4.3-.4.6-.4.9zM11527-13991.5l-.4.7c-.2-.1-.3-.2-.4-.2s-.2-.1-.3-.1c-.1 0-.2 0-.3-.1h-.3c-.2 0-.4 0-.7.1s-.6.3-.8.5v6.6h-.8v-7.1l-.4-.4.6-.6.6.5c.3-.3.6-.5.9-.5.3-.1.5-.1.7-.1.2 0 .4 0 .7.1.1.2.4.3.9.6zM11532.8-13986.2c0 .5-.1.9-.3 1.2-.2.3-.4.5-.7.7-.3.2-.5.3-.8.3-.3.1-.5.1-.7.1-.2 0-.4 0-.7-.1-.3-.1-.5-.2-.8-.3-.3-.2-.5-.4-.7-.7s-.3-.7-.3-1.2v-3.7c0-.5.1-.9.3-1.2.2-.3.4-.5.7-.7s.5-.3.8-.3c.3-.1.5-.1.7-.1.2 0 .4 0 .7.1.3.1.5.2.8.3s.5.4.7.7c.2.3.3.7.3 1.2v3.7zm-.7-.1v-3.5c0-.4-.1-.6-.2-.8s-.3-.4-.5-.5c-.2-.1-.4-.2-.6-.2-.2 0-.4-.1-.5-.1s-.3 0-.5.1c-.2 0-.4.1-.6.2-.2.1-.3.3-.5.5s-.2.5-.2.8v3.5c0 .4.1.6.2.8s.3.4.5.5c.2.1.4.2.6.2.2 0 .4.1.5.1s.3 0 .5-.1c.2 0 .4-.1.6-.2s.3-.3.5-.5.2-.5.2-.8zM11539.1-13986.2c0 .8-.2 1.4-.6 1.8s-.9.6-1.5.6h-.6c-.2 0-.4-.1-.6-.2l-1.3-.5.3-.7 1.3.5c.2.1.3.1.5.1h.4c.4 0 .7-.1.9-.4.3-.3.4-.7.4-1.2 0-.2 0-.4-.1-.6-.1-.2-.2-.3-.3-.4-.1-.1-.3-.2-.4-.2-.2 0-.3-.1-.5-.1-.4 0-.7 0-1-.1-.3-.1-.6-.2-.8-.4-.2-.2-.4-.4-.5-.7-.1-.3-.2-.7-.2-1.1 0-.8.2-1.4.6-1.8.4-.4.9-.6 1.6-.6.2 0 .4 0 .6.1.2 0 .4.1.6.2l.5.2-.3.7c-.3-.1-.5-.2-.6-.2-.2 0-.3-.1-.4-.1h-.2H11536.6c-.4 0-.7.1-1 .4-.3.3-.4.7-.4 1.2 0 .2 0 .4.1.6.1.2.2.3.4.4.1.1.3.2.5.3.2.1.3.1.5.1.3 0 .6 0 .9.1.3.1.6.2.8.3.2.2.4.4.5.6s.2.7.2 1.1zM11547.9-13988.2l2.1-7h1.4v11.2h-.9v-9.3h-.2l-1.9 6h-1.4l-1.9-6h-.2v9.3h-.8v-11.2h1.4l2.1 7h.3zM11558.4-13986.2c0 .5-.1.9-.3 1.2-.2.3-.4.5-.7.7-.3.2-.5.3-.8.3-.3.1-.5.1-.7.1-.2 0-.4 0-.7-.1-.3-.1-.5-.2-.8-.3-.3-.2-.5-.4-.7-.7s-.3-.7-.3-1.2v-3.7c0-.5.1-.9.3-1.2.2-.3.4-.5.7-.7s.5-.3.8-.3c.3-.1.5-.1.7-.1.2 0 .4 0 .7.1.3.1.5.2.8.3s.5.4.7.7c.2.3.3.7.3 1.2v3.7zm-.7-.1v-3.5c0-.4-.1-.6-.2-.8s-.3-.4-.5-.5c-.2-.1-.4-.2-.6-.2-.2 0-.4-.1-.5-.1s-.3 0-.5.1c-.2 0-.4.1-.6.2-.2.1-.3.3-.5.5s-.2.5-.2.8v3.5c0 .4.1.6.2.8s.3.4.5.5c.2.1.4.2.6.2.2 0 .4.1.5.1s.3 0 .5-.1c.2 0 .4-.1.6-.2s.3-.3.5-.5.2-.5.2-.8zM11564.5-13991.5l-.4.7c-.2-.1-.3-.2-.4-.2-.1-.1-.2-.1-.3-.1-.1 0-.2 0-.3-.1h-.3c-.2 0-.4 0-.7.1s-.6.3-.8.5v6.6h-.8v-7.1l-.4-.4.6-.6.6.5c.3-.3.6-.5.9-.5.3-.1.5-.1.7-.1.2 0 .4 0 .7.1 0 .2.4.3.9.6zM11570.3-13990.8c.1.3.2.5.2.8v6h-.8v-5.7c0-.5-.1-1-.4-1.2s-.6-.4-1-.4c-.2 0-.5 0-.8.1-.3.1-.7.2-1.1.5v6.8h-.8v-7.2l-.4-.3.6-.6.5.5c.6-.3 1.1-.5 1.7-.5.5 0 .9.1 1.3.3s.8.4 1 .9zM11572.4-13989.9c0-.3.1-.6.2-.9s.3-.5.5-.7c.2-.2.4-.4.7-.5.3-.1.5-.2.9-.2h.5c.3 0 .6.1.8.2.3.1.5.3.7.5.2.2.4.4.5.7s.2.6.2.9v.5c0 .4-.1.8-.2 1.1-.2.3-.4.6-.7.7-.3.2-.6.3-1 .4s-.8.1-1.2.1h-1v1c.1.4.3.8.6 1 .3.3.7.4 1.1.4 0 0 .2 0 .4-.1s.5-.1.7-.2c.3-.1.6-.1 1-.2l.2.8c-.4.1-.8.2-1.1.2-.3.1-.5.1-.8.1-.3 0-.4.1-.5.1-.3 0-.7-.1-1-.2-.3-.1-.6-.3-.8-.5-.2-.2-.4-.5-.6-.8-.1-.3-.2-.6-.2-1v-3.4zm2.7 2c.2 0 .4 0 .6-.1.2-.1.3-.2.4-.3s.2-.3.3-.5c.1-.2.1-.4.1-.5v-.7c0-.3 0-.5-.1-.6-.1-.2-.2-.3-.4-.4-.2-.1-.3-.2-.5-.2s-.4-.1-.6-.1c-.2 0-.4 0-.6.1-.2.1-.3.2-.5.3s-.3.3-.3.4-.1.4-.1.6v2.1l1.7-.1z" transform="translate(-10750 13999)"></path></g><g class="st2"><path class="st1" d="M11533.4-13967.3v-8.6c0-.4 0-.7.1-1 .1-.3.2-.5.4-.6.2-.2.4-.3.6-.4.2-.1.5-.1.7-.1h.3v.9h-.2c-.3 0-.6.1-.8.2-.2.2-.3.5-.3.9v8.8c0 .4.1.7.3.9.2.2.5.2.8.2h.2v.9h-.3c-.3 0-.5 0-.7-.1-.2-.1-.4-.2-.6-.4-.2-.2-.3-.4-.4-.6s-.1-.6-.1-1zM11536.9-13975.8l1.1-.5c.2-.1.4-.1.6-.2.3-.1.5-.1.6-.1.4 0 .7.1 1 .2.3.1.6.4.8.6.2.3.4.6.5.9.1.4.2.7.2 1.2 0 .4-.1.8-.2 1.2-.2.3-.4.7-.8 1l.6.6c.2.2.2.4.3.6.1.2.1.4.1.7v.7c0 .4-.1.8-.2 1.2s-.3.7-.5.9-.5.5-.8.6-.7.2-1 .2c-.2 0-.3 0-.6-.1-.2 0-.4-.1-.6-.2l-1.1-.4.2-.9 1.3.6c.1 0 .2.1.3.1h.3c.3 0 .5-.1.7-.2s.4-.3.6-.5c.2-.2.3-.4.4-.7s.1-.5.2-.8c0-.3 0-.6-.1-.8s-.2-.5-.3-.7c-.1-.2-.3-.4-.5-.5-.2-.1-.5-.2-.8-.2h-.9v-.8h.9c.6 0 1.1-.2 1.3-.5s.4-.8.4-1.4c0-.3-.1-.5-.2-.8-.1-.2-.3-.4-.4-.6-.2-.2-.3-.3-.6-.4-.2-.1-.4-.1-.6-.1h-.4c-.2 0-.3.1-.4.1l-1.2.5-.2-.5zM11552-13974.3v6.2c0 .3-.1.6-.2.9s-.3.5-.5.7c-.2.2-.4.4-.7.5-.3.1-.5.2-.8.2h-.5c-.3 0-.6-.1-.8-.2-.3-.1-.5-.3-.7-.5-.2-.2-.3-.4-.4-.7s-.2-.6-.2-.9v-6.2c0-.3.1-.6.2-.9.1-.3.3-.5.5-.7.2-.2.4-.4.7-.5.3-.1.5-.2.8-.2h.5c.3 0 .6.1.8.2.3.1.5.3.7.5s.3.4.5.7c0 .3.1.6.1.9zm-2.6 7.6h.5c.4 0 .7-.1.9-.4.3-.3.4-.6.4-1v-6.2c0-.4-.1-.8-.4-1-.3-.2-.6-.3-1-.3-.2 0-.4 0-.6.1-.2 0-.4.1-.5.2-.1.1-.3.2-.4.4s-.1.4-.1.6v6.2c0 .4.1.7.4 1 .1.3.4.4.8.4zM11554.4-13976l.8-.4v10.4h-.8v-10zM11559.5-13976.5h.5c.3 0 .6.1.8.2.3.1.5.3.7.5.2.2.3.4.5.7s.2.6.2.9v6c0 .4-.1.7-.2 1-.1.3-.3.6-.5.8-.2.2-.5.4-.8.5-.3.1-.6.2-1 .2-.1 0-.2 0-.4-.1s-.5-.1-.8-.2c-.3-.1-.7-.2-1.1-.3l.2-.8c.4.1.7.2 1 .2.2.1.5.1.7.2s.3.1.4.1c.5 0 .9-.1 1.2-.4s.5-.7.5-1.2v-2.2c-.1.1-.2.2-.4.2s-.3.1-.5.1-.4.1-.5.1h-.4c-.3 0-.6-.1-.8-.2-.3-.1-.5-.3-.7-.5-.2-.2-.3-.4-.5-.7-.1-.3-.2-.6-.2-.9v-2.1c0-.3.1-.6.2-.9.1-.3.3-.5.5-.7.2-.2.4-.4.7-.5.2.1.4 0 .7 0zm0 5.7h.5c.4 0 .7-.1.9-.4.3-.3.4-.6.4-1v-2.2c0-.4-.2-.8-.4-1-.3-.2-.6-.3-1-.3-.2 0-.4 0-.6.1-.2 0-.4.1-.5.2-.1.1-.3.2-.4.4-.1.2-.1.4-.1.6v2.2c0 .4.1.7.4 1 .1.3.5.4.8.4zM11568.4-13972c0-.2 0-.4-.1-.5-.1-.2-.2-.3-.4-.4-.2-.1-.3-.2-.5-.3-.2-.1-.4-.1-.6-.1h-.4c-.2 0-.3.1-.5.1s-.3.1-.5.2c-.1.1-.3.1-.4.2v6.8h-.8v-7.2l-.4-.4.6-.6.5.5c.3-.1.6-.3.8-.4.3-.1.6-.1.8-.1.5 0 .9.1 1.3.3.4.2.7.5.8.9.1-.3.3-.5.5-.6.2-.2.4-.3.6-.4.2-.1.4-.2.6-.2s.4-.1.6-.1c.4 0 .7.1 1 .2.3.1.5.3.7.5.2.2.3.5.4.7.1.3.1.5.1.8v5.9h-.8v-5.8c0-.2 0-.4-.1-.6 0-.2-.1-.3-.2-.5s-.2-.2-.4-.3c-.2-.1-.4-.1-.6-.1-.7 0-1.2.2-1.5.6-.3.4-.4.9-.4 1.6v5.2h-.8v-5.9zM11576.9-13966.3c-.1.3-.2.5-.4.6-.2.2-.4.3-.6.4s-.5.1-.7.1h-.3v-.9h.2c.3 0 .6-.1.8-.2.2-.2.3-.5.3-.9v-8.8c0-.4-.1-.7-.3-.9-.2-.2-.5-.2-.8-.2h-.2v-.9h.3c.3 0 .5 0 .7.1s.4.2.6.4c.2.2.3.4.4.6.1.3.1.6.1 1v8.6c0 .4 0 .7-.1 1z" transform="translate(-10750 13999)"></path></g><g class="st2"><path class="st1" d="M11692-13995.4c.4 0 .9.1 1.3.2.4.2.8.4 1.1.7.3.3.6.6.7 1s.3.9.3 1.4c0 .5-.1 1-.3 1.4-.2.4-.4.8-.7 1.1s-.7.5-1.1.7-.9.3-1.3.3h-1.9v4.6h-.8v-10.7l.9-.3c.3-.1.6-.2.9-.2.2-.1.6-.2.9-.2zm-.1 1c-.2 0-.4 0-.6.1-.2 0-.4.1-.6.2-.2.1-.4.1-.6.2v4.5h1.8c.8 0 1.4-.2 1.9-.6.5-.4.7-1.1.7-1.9 0-.8-.2-1.4-.7-1.8-.5-.5-1.2-.7-1.9-.7zM11696.9-13995.2h.8v1.2h-.8v-1.2zm0 3.2h.8v8h-.8v-8zM11700.4-13986.1v-5.1h-1.4v-.8h1.4v-3.2h.8v3.2h1.5v.8h-1.5v5.2c0 .4.1.7.3.9.2.2.5.2.8.2h.4v.9h-.4c-.3 0-.5 0-.7-.1-.2-.1-.4-.2-.6-.4-.2-.2-.3-.4-.4-.6-.1-.3-.2-.6-.2-1zM11708.8-13986.2c0 .5-.1.9-.3 1.2-.2.3-.4.5-.7.7-.3.2-.5.3-.8.3-.3.1-.5.1-.7.1-.2 0-.4 0-.7-.1-.3-.1-.5-.2-.8-.3-.3-.2-.5-.4-.7-.7s-.3-.7-.3-1.2v-3.7c0-.5.1-.9.3-1.2.2-.3.4-.5.7-.7s.5-.3.8-.3c.3-.1.5-.1.7-.1.2 0 .4 0 .7.1.3.1.5.2.8.3s.5.4.7.7c.2.3.3.7.3 1.2v3.7zm-.7-.1v-3.5c0-.4-.1-.6-.2-.8s-.3-.4-.5-.5c-.2-.1-.4-.2-.6-.2-.2 0-.4-.1-.5-.1s-.3 0-.5.1c-.2 0-.4.1-.6.2-.2.1-.3.3-.5.5s-.2.5-.2.8v3.5c0 .4.1.6.2.8s.3.4.5.5c.2.1.4.2.6.2.2 0 .4.1.5.1s.3 0 .5-.1c.2 0 .4-.1.6-.2s.3-.3.5-.5.2-.5.2-.8zM11715.4-13990.8c.1.3.2.5.2.8v6h-.8v-5.7c0-.5-.1-1-.4-1.2s-.6-.4-1-.4c-.2 0-.5 0-.8.1-.3.1-.7.2-1.1.5v6.8h-.8v-7.2l-.4-.3.6-.6.5.5c.6-.3 1.1-.5 1.7-.5.5 0 .9.1 1.3.3s.8.4 1 .9zM11724.9-13991.7v-3.5h.8v10.4l.4.4-.6.6-.5-.5c-.3.2-.7.3-1.1.4-.4.1-.7.1-.9.1-.3 0-.6-.1-.8-.2-.3-.1-.5-.3-.7-.5-.2-.2-.3-.4-.5-.7-.1-.3-.2-.6-.2-.9v-3.8c0-.3.1-.6.2-.9.1-.3.3-.5.5-.7.2-.2.4-.4.7-.5.3-.1.5-.2.8-.2.2 0 .4 0 .7.1s.8.2 1.2.4zm0 6.5v-5.5c-.4-.2-.7-.4-1.1-.5-.3-.1-.6-.1-.8-.1-.4 0-.7.1-.9.4-.3.3-.4.6-.4 1v3.9c0 .2 0 .4.1.5.1.2.2.3.3.4.1.1.3.2.4.3.2.1.3.1.5.1h.4c.2 0 .4-.1.6-.1.2 0 .4-.1.5-.2.2-.1.3-.2.4-.2zM11727.6-13989.9c0-.3.1-.6.2-.9s.3-.5.5-.7c.2-.2.4-.4.7-.5.3-.1.5-.2.9-.2h.5c.3 0 .6.1.8.2.3.1.5.3.7.5.2.2.4.4.5.7s.2.6.2.9v.5c0 .4-.1.8-.2 1.1-.2.3-.4.6-.7.7-.3.2-.6.3-1 .4s-.8.1-1.2.1h-1v1c.1.4.3.8.6 1 .3.3.7.4 1.1.4 0 0 .2 0 .4-.1s.5-.1.7-.2c.3-.1.6-.1 1-.2l.2.8c-.4.1-.8.2-1.1.2-.3.1-.5.1-.8.1-.3 0-.4.1-.5.1-.3 0-.7-.1-1-.2-.3-.1-.6-.3-.8-.5-.2-.2-.4-.5-.6-.8-.1-.3-.2-.6-.2-1v-3.4zm2.7 2c.2 0 .4 0 .6-.1.2-.1.3-.2.4-.3s.2-.3.3-.5c.1-.2.1-.4.1-.5v-.7c0-.3 0-.5-.1-.6-.1-.2-.2-.3-.4-.4-.2-.1-.3-.2-.5-.2s-.4-.1-.6-.1c-.2 0-.4 0-.6.1-.2.1-.3.2-.5.3s-.3.3-.3.4-.1.4-.1.6v2.1l1.7-.1zM11738.6-13986.2c0 .8-.2 1.4-.6 1.8s-.9.6-1.5.6h-.6c-.2 0-.4-.1-.6-.2l-1.3-.5.3-.7 1.3.5c.2.1.3.1.5.1h.4c.4 0 .7-.1.9-.4.3-.3.4-.7.4-1.2 0-.2 0-.4-.1-.6-.1-.2-.2-.3-.3-.4-.1-.1-.3-.2-.4-.2-.2 0-.3-.1-.5-.1-.4 0-.7 0-1-.1-.3-.1-.6-.2-.8-.4-.2-.2-.4-.4-.5-.7-.1-.3-.2-.7-.2-1.1 0-.8.2-1.4.6-1.8.4-.4.9-.6 1.6-.6.2 0 .4 0 .6.1.2 0 .4.1.6.2l.5.2-.3.7c-.3-.1-.5-.2-.6-.2-.2 0-.3-.1-.4-.1h-.2H11736.1c-.4 0-.7.1-1 .4-.3.3-.4.7-.4 1.2 0 .2 0 .4.1.6.1.2.2.3.4.4.1.1.3.2.5.3.2.1.3.1.5.1.3 0 .6 0 .9.1.3.1.6.2.8.3.2.2.4.4.5.6s.2.7.2 1.1zM11750-13995.2v11.2h-1.6l-3.8-9.3h-.2v9.3h-.8v-11.2h1.2l4.2 10.1h.2v-10.1h.8zM11752.1-13989.9c0-.3.1-.6.2-.9s.3-.5.5-.7c.2-.2.4-.4.7-.5.3-.1.5-.2.9-.2h.5c.3 0 .6.1.8.2.3.1.5.3.7.5.2.2.4.4.5.7s.2.6.2.9v.5c0 .4-.1.8-.2 1.1-.2.3-.4.6-.7.7-.3.2-.6.3-1 .4s-.8.1-1.2.1h-1v1c.1.4.3.8.6 1 .3.3.7.4 1.1.4 0 0 .2 0 .4-.1s.5-.1.7-.2c.3-.1.6-.1 1-.2l.2.8c-.4.1-.8.2-1.1.2-.3.1-.5.1-.8.1-.3 0-.4.1-.5.1-.3 0-.7-.1-1-.2-.3-.1-.6-.3-.8-.5-.2-.2-.4-.5-.6-.8-.1-.3-.2-.6-.2-1v-3.4zm2.7 2c.2 0 .4 0 .6-.1.2-.1.3-.2.4-.3s.2-.3.3-.5c.1-.2.1-.4.1-.5v-.7c0-.3 0-.5-.1-.6-.1-.2-.2-.3-.4-.4-.2-.1-.3-.2-.5-.2s-.4-.1-.6-.1c-.2 0-.4 0-.6.1-.2.1-.3.2-.5.3s-.3.3-.3.4-.1.4-.1.6v2.1l1.7-.1zM11758.8-13995.2h.8v1.2h-.8v-1.2zm0 3.2h.8v8h-.8v-8zM11766.3-13982.1c0 .4-.1.7-.2 1-.1.3-.3.5-.5.7-.2.2-.5.3-.8.4-.3.1-.6.1-1 .1-.2 0-.4 0-.6-.1-.3-.1-.5-.1-.8-.2l-.9-.3.2-.8c.3.1.6.2.8.3.2.1.5.1.7.2.2 0 .4.1.5.1.5 0 .9-.1 1.2-.4s.5-.6.5-1.1v-2.1c-.4.2-.7.3-1 .3s-.5.1-.7.1h-.2c-.3 0-.6-.1-.8-.2-.3-.1-.5-.3-.7-.5-.2-.2-.3-.4-.5-.7-.1-.3-.2-.6-.2-.9v-3.8c0-.3.1-.6.2-.9.1-.3.3-.5.5-.7.2-.2.4-.4.7-.5.3-.1.5-.2.8-.2.2 0 .5 0 .9.1.3.1.7.2 1.1.4l.5-.5.6.6-.4.3v9.3zm-.8-8.7c0-.1-.1-.2-.3-.2-.2-.1-.3-.1-.5-.2-.2 0-.4-.1-.6-.1h-.4c-.2 0-.4 0-.5.1-.2.1-.3.2-.4.3-.1.1-.2.3-.3.4s-.1.3-.1.5v3.9c0 .4.1.7.4 1 .3.3.6.4.9.4h.4c.2 0 .3-.1.5-.1s.4-.1.5-.2c.2-.1.3-.1.4-.2v-5.6zM11768.2-13989.9c0-.3.1-.6.2-.9s.3-.5.5-.7c.2-.2.4-.4.7-.5.3-.1.5-.2.9-.2h.5c.3 0 .6.1.8.2.3.1.5.3.7.5.2.2.4.4.5.7s.2.6.2.9v.5c0 .4-.1.8-.2 1.1-.2.3-.4.6-.7.7-.3.2-.6.3-1 .4s-.8.1-1.2.1h-1v1c.1.4.3.8.6 1 .3.3.7.4 1.1.4 0 0 .2 0 .4-.1s.5-.1.7-.2c.3-.1.6-.1 1-.2l.2.8c-.4.1-.8.2-1.1.2-.3.1-.5.1-.8.1-.3 0-.4.1-.5.1-.3 0-.7-.1-1-.2-.3-.1-.6-.3-.8-.5-.2-.2-.4-.5-.6-.8-.1-.3-.2-.6-.2-1v-3.4zm2.7 2c.2 0 .4 0 .6-.1.2-.1.3-.2.4-.3s.2-.3.3-.5c.1-.2.1-.4.1-.5v-.7c0-.3 0-.5-.1-.6-.1-.2-.2-.3-.4-.4-.2-.1-.3-.2-.5-.2s-.4-.1-.6-.1c-.2 0-.4 0-.6.1-.2.1-.3.2-.5.3s-.3.3-.3.4-.1.4-.1.6v2.1l1.7-.1zM11779.2-13986.2c0 .8-.2 1.4-.6 1.8s-.9.6-1.5.6h-.6c-.2 0-.4-.1-.6-.2l-1.3-.5.3-.7 1.3.5c.2.1.3.1.5.1h.4c.4 0 .7-.1.9-.4.3-.3.4-.7.4-1.2 0-.2 0-.4-.1-.6-.1-.2-.2-.3-.3-.4-.1-.1-.3-.2-.4-.2-.2 0-.3-.1-.5-.1-.4 0-.7 0-1-.1-.3-.1-.6-.2-.8-.4-.2-.2-.4-.4-.5-.7-.1-.3-.2-.7-.2-1.1 0-.8.2-1.4.6-1.8.4-.4.9-.6 1.6-.6.2 0 .4 0 .6.1.2 0 .4.1.6.2l.5.2-.3.7c-.3-.1-.5-.2-.6-.2-.2 0-.3-.1-.4-.1h-.2H11776.7c-.4 0-.7.1-1 .4-.3.3-.4.7-.4 1.2 0 .2 0 .4.1.6.1.2.2.3.4.4.1.1.3.2.5.3.2.1.3.1.5.1.3 0 .6 0 .9.1.3.1.6.2.8.3.2.2.4.4.5.6s.2.7.2 1.1z" transform="translate(-10750 13999)"></path></g><g class="st2"><path class="st1" d="M11689-13967.3v-8.6c0-.4 0-.7.1-1 .1-.3.2-.5.4-.6.2-.2.4-.3.6-.4s.5-.1.7-.1h.3v.9h-.2c-.3 0-.6.1-.8.2-.2.2-.3.5-.3.9v8.8c0 .4.1.7.3.9.2.2.5.2.8.2h.2v.9h-.3c-.3 0-.5 0-.7-.1s-.4-.2-.6-.4c-.2-.2-.3-.4-.4-.6-.1-.3-.1-.6-.1-1zM11692.4-13975.8l1.1-.5c.2-.1.4-.1.6-.2.3-.1.5-.1.6-.1.4 0 .7.1 1 .2.3.1.6.4.8.6.2.3.4.6.5.9.1.4.2.7.2 1.2 0 .4-.1.8-.2 1.2-.2.3-.4.7-.8 1l.6.6c.2.2.2.4.3.6.1.2.1.4.1.7v.7c0 .4-.1.8-.2 1.2s-.3.7-.5.9-.5.5-.8.6c-.3.2-.7.2-1 .2-.2 0-.3 0-.6-.1-.2 0-.4-.1-.6-.2l-1.1-.4.2-.9 1.3.6c.1 0 .2.1.3.1h.3c.3 0 .5-.1.7-.2s.4-.3.6-.5c.2-.2.3-.4.4-.7s.1-.5.2-.8c0-.3 0-.6-.1-.8s-.2-.5-.3-.7-.3-.4-.5-.5c-.2-.1-.5-.2-.8-.2h-.9v-.8h.9c.6 0 1.1-.2 1.3-.5s.4-.8.4-1.4c0-.3-.1-.5-.2-.8-.1-.2-.3-.4-.4-.6-.2-.2-.3-.3-.6-.4-.2-.1-.4-.1-.6-.1h-.4c-.2 0-.3.1-.4.1l-1.2.5-.2-.5zM11707.5-13974.3v6.2c0 .3-.1.6-.2.9s-.3.5-.5.7c-.2.2-.4.4-.7.5-.3.1-.5.2-.8.2h-.5c-.3 0-.6-.1-.8-.2-.3-.1-.5-.3-.7-.5-.2-.2-.3-.4-.4-.7s-.2-.6-.2-.9v-6.2c0-.3.1-.6.2-.9.1-.3.3-.5.5-.7.2-.2.4-.4.7-.5.3-.1.5-.2.8-.2h.5c.3 0 .6.1.8.2.3.1.5.3.7.5s.3.4.5.7c.1.3.1.6.1.9zm-2.6 7.6h.5c.4 0 .7-.1.9-.4.3-.3.4-.6.4-1v-6.2c0-.4-.1-.8-.4-1-.3-.2-.6-.3-1-.3-.2 0-.4 0-.6.1-.2 0-.4.1-.5.2-.1.1-.3.2-.4.4s-.1.4-.1.6v6.2c0 .4.1.7.4 1 .1.3.4.4.8.4zM11712.4-13965.9h-.5c-.3 0-.6-.1-.8-.2-.3-.1-.5-.3-.7-.5-.2-.2-.3-.4-.5-.7-.1-.3-.2-.6-.2-.9v-6c0-.4.1-.7.2-1 .1-.3.3-.6.5-.8.2-.2.5-.4.8-.5.3-.1.6-.2 1-.2h.3c.1 0 .3.1.5.1s.4.1.7.2l-.2.8c-.2-.1-.4-.1-.6-.1-.1 0-.3-.1-.4-.1h-.3c-.5 0-.9.1-1.2.4s-.5.7-.5 1.2v1.9c.1-.1.3-.2.5-.2.2-.1.4-.1.5-.1.2 0 .3-.1.5-.1h.4c.3 0 .6.1.8.2s.5.3.7.5.3.4.5.7c.1.3.2.6.2.9v2.3c0 .3-.1.6-.2.9s-.3.5-.5.7-.4.4-.7.5c-.2.1-.5.1-.8.1zm0-5.9h-.5c-.4 0-.7.1-.9.4-.3.3-.4.6-.4 1v2.4c0 .5.2.8.5 1s.7.3 1.1.3c.2 0 .4 0 .6-.1s.4-.1.5-.2c.1-.1.3-.2.3-.4.1-.2.1-.4.1-.6v-2.4c0-.4-.1-.7-.4-1-.2-.3-.6-.4-.9-.4zM11718.4-13976.5h.5c.3 0 .6.1.8.2.3.1.5.3.7.5.2.2.3.4.5.7s.2.6.2.9v6c0 .4-.1.7-.2 1-.1.3-.3.6-.5.8-.2.2-.5.4-.8.5-.3.1-.6.2-1 .2-.1 0-.2 0-.4-.1s-.5-.1-.8-.2c-.3-.1-.7-.2-1.1-.3l.2-.8c.4.1.7.2 1 .2.2.1.5.1.7.2s.3.1.4.1c.5 0 .9-.1 1.2-.4s.5-.7.5-1.2v-2.2c-.1.1-.2.2-.4.2s-.3.1-.5.1-.4.1-.5.1h-.4c-.3 0-.6-.1-.8-.2-.3-.1-.5-.3-.7-.5-.2-.2-.3-.4-.5-.7-.1-.3-.2-.6-.2-.9v-2.1c0-.3.1-.6.2-.9.1-.3.3-.5.5-.7.2-.2.4-.4.7-.5.1.1.4 0 .7 0zm0 5.7h.5c.4 0 .7-.1.9-.4.3-.3.4-.6.4-1v-2.2c0-.4-.2-.8-.4-1-.3-.2-.6-.3-1-.3-.2 0-.4 0-.6.1-.2 0-.4.1-.5.2-.1.1-.3.2-.4.4-.1.2-.1.4-.1.6v2.2c0 .4.1.7.4 1 .1.3.4.4.8.4zM11727.3-13972c0-.2 0-.4-.1-.5-.1-.2-.2-.3-.4-.4-.2-.1-.3-.2-.5-.3-.2-.1-.4-.1-.6-.1h-.4c-.2 0-.3.1-.5.1s-.3.1-.5.2c-.1.1-.3.1-.4.2v6.8h-.8v-7.2l-.4-.4.6-.6.5.5c.3-.1.6-.3.8-.4.3-.1.6-.1.8-.1.5 0 .9.1 1.3.3.4.2.7.5.8.9.1-.3.3-.5.5-.6.2-.2.4-.3.6-.4.2-.1.4-.2.6-.2s.4-.1.6-.1c.4 0 .7.1 1 .2.3.1.5.3.7.5.2.2.3.5.4.7.1.3.1.5.1.8v5.9h-.8v-5.8c0-.2 0-.4-.1-.6 0-.2-.1-.3-.2-.5s-.2-.2-.4-.3c-.2-.1-.4-.1-.6-.1-.7 0-1.2.2-1.5.6-.3.4-.4.9-.4 1.6v5.2h-.8v-5.9zM11735.7-13966.3c-.1.3-.2.5-.4.6-.2.2-.4.3-.6.4s-.5.1-.7.1h-.3v-.9h.2c.3 0 .6-.1.8-.2.2-.2.3-.5.3-.9v-8.8c0-.4-.1-.7-.3-.9-.2-.2-.5-.2-.8-.2h-.2v-.9h.3c.3 0 .5 0 .7.1s.4.2.6.4c.2.2.3.4.4.6.1.3.1.6.1 1v8.6c.1.4 0 .7-.1 1z" transform="translate(-10750 13999)"></path></g><g class="st2"><path class="st1" d="M12229.9-13995.4c.4 0 .9.1 1.3.2s.8.4 1.1.7.6.6.7 1c.2.4.3.9.3 1.4 0 .5-.1 1-.3 1.4s-.4.8-.7 1.1-.7.5-1.1.7c-.4.2-.9.3-1.3.3h-1.9v4.6h-.8v-10.7l.9-.3c.3-.1.6-.2.9-.2.2-.1.5-.2.9-.2zm-.1 1c-.2 0-.4 0-.6.1-.2 0-.4.1-.6.2-.2.1-.4.1-.6.2v4.5h1.8c.8 0 1.4-.2 1.9-.6.5-.4.7-1.1.7-1.9 0-.8-.2-1.4-.7-1.8-.6-.5-1.2-.7-1.9-.7zM12234.8-13995.2h.8v1.2h-.8v-1.2zm0 3.2h.8v8h-.8v-8zM12238.3-13986.1v-5.1h-1.4v-.8h1.4v-3.2h.8v3.2h1.5v.8h-1.5v5.2c0 .4.1.7.3.9.2.2.5.2.8.2h.4v.9h-.4c-.3 0-.5 0-.7-.1-.2-.1-.4-.2-.6-.4-.2-.2-.3-.4-.4-.6-.1-.3-.2-.6-.2-1zM12246.7-13986.2c0 .5-.1.9-.3 1.2-.2.3-.4.5-.7.7-.3.2-.5.3-.8.3-.3.1-.5.1-.7.1-.2 0-.4 0-.7-.1-.3-.1-.5-.2-.8-.3-.3-.2-.5-.4-.7-.7s-.3-.7-.3-1.2v-3.7c0-.5.1-.9.3-1.2.2-.3.4-.5.7-.7s.5-.3.8-.3c.3-.1.5-.1.7-.1.2 0 .4 0 .7.1.3.1.5.2.8.3s.5.4.7.7c.2.3.3.7.3 1.2v3.7zm-.7-.1v-3.5c0-.4-.1-.6-.2-.8s-.3-.4-.5-.5c-.2-.1-.4-.2-.6-.2-.2 0-.4-.1-.5-.1s-.3 0-.5.1c-.2 0-.4.1-.6.2-.2.1-.3.3-.5.5s-.2.5-.2.8v3.5c0 .4.1.6.2.8s.3.4.5.5c.2.1.4.2.6.2.2 0 .4.1.5.1s.3 0 .5-.1c.2 0 .4-.1.6-.2s.3-.3.5-.5.2-.5.2-.8zM12253.3-13990.8c.1.3.2.5.2.8v6h-.8v-5.7c0-.5-.1-1-.4-1.2s-.6-.4-1-.4c-.2 0-.5 0-.8.1-.3.1-.7.2-1.1.5v6.8h-.8v-7.2l-.4-.3.6-.6.5.5c.6-.3 1.1-.5 1.7-.5.5 0 .9.1 1.3.3s.8.4 1 .9zM12262.7-13991.7v-3.5h.8v10.4l.4.4-.6.6-.5-.5c-.3.2-.7.3-1.1.4-.4.1-.7.1-.9.1-.3 0-.6-.1-.8-.2-.3-.1-.5-.3-.7-.5-.2-.2-.3-.4-.5-.7-.1-.3-.2-.6-.2-.9v-3.8c0-.3.1-.6.2-.9.1-.3.3-.5.5-.7.2-.2.4-.4.7-.5.3-.1.5-.2.8-.2.2 0 .4 0 .7.1s.8.2 1.2.4zm0 6.5v-5.5c-.4-.2-.7-.4-1.1-.5-.3-.1-.6-.1-.8-.1-.4 0-.7.1-.9.4-.3.3-.4.6-.4 1v3.9c0 .2 0 .4.1.5.1.2.2.3.3.4.1.1.3.2.4.3.2.1.3.1.5.1h.4c.2 0 .4-.1.6-.1.2 0 .4-.1.5-.2.3-.1.4-.2.4-.2zM12265.5-13989.9c0-.3.1-.6.2-.9s.3-.5.5-.7c.2-.2.4-.4.7-.5.3-.1.5-.2.9-.2h.5c.3 0 .6.1.8.2.3.1.5.3.7.5.2.2.4.4.5.7s.2.6.2.9v.5c0 .4-.1.8-.2 1.1-.2.3-.4.6-.7.7-.3.2-.6.3-1 .4s-.8.1-1.2.1h-1v1c.1.4.3.8.6 1 .3.3.7.4 1.1.4 0 0 .2 0 .4-.1s.5-.1.7-.2c.3-.1.6-.1 1-.2l.2.8c-.4.1-.8.2-1.1.2-.3.1-.5.1-.8.1-.3 0-.4.1-.5.1-.3 0-.7-.1-1-.2-.3-.1-.6-.3-.8-.5-.2-.2-.4-.5-.6-.8-.1-.3-.2-.6-.2-1v-3.4zm2.7 2c.2 0 .4 0 .6-.1.2-.1.3-.2.4-.3s.2-.3.3-.5c.1-.2.1-.4.1-.5v-.7c0-.3 0-.5-.1-.6-.1-.2-.2-.3-.4-.4-.2-.1-.3-.2-.5-.2s-.4-.1-.6-.1c-.2 0-.4 0-.6.1-.2.1-.3.2-.5.3s-.3.3-.3.4-.1.4-.1.6v2.1l1.7-.1zM12275.6-13995.2h.8v9.2c0 .4.1.7.3.9.2.2.5.2.8.2h.2v.9h-.3c-.3 0-.5 0-.7-.1s-.4-.2-.6-.4c-.2-.2-.3-.4-.4-.6-.1-.3-.1-.6-.1-1v-9.1zM12283.4-13984.8l.3.3-.6.6-.4-.4c-.3.2-.7.3-1.1.4s-.7.1-.9.1c-.3 0-.6-.1-.8-.2-.3-.1-.5-.3-.7-.5-.2-.2-.3-.5-.4-.7s-.2-.6-.2-.9v-.9c0-.3.1-.6.2-.9.1-.3.3-.5.4-.7.2-.2.4-.4.7-.5.3-.1.5-.2.8-.2h.3c.2 0 .3 0 .5.1.2 0 .4.1.5.1s.3.1.5.2v-.5c0-.2 0-.5-.1-.7s-.2-.5-.4-.6c-.1-.2-.3-.3-.5-.5-.2-.1-.4-.2-.7-.2-.1 0-.2 0-.5.1s-.4.1-.7.2c-.3.1-.6.1-.9.2l-.2-.8c.4-.1.7-.2 1-.2.3-.1.5-.1.8-.2.2-.1.4-.1.5-.1.3 0 .7.1 1 .2s.6.4.8.6c.2.3.4.6.5.9.1.3.2.7.2 1l.1 4.7zm-.8-3.1l-.1-.1c-.1-.1-.2-.1-.4-.2s-.4-.1-.6-.2-.5-.1-.7-.1c-.2 0-.4 0-.5.1-.2.1-.3.2-.4.3-.1.1-.2.3-.3.4-.1.2-.1.3-.1.5v1c0 .2 0 .4.1.5.1.2.2.3.3.4.1.1.3.2.4.3.2.1.3.1.5.1s.3 0 .6-.1c.2-.1.4-.1.6-.2.2-.1.5-.2.7-.3v-2.4zM12293.4-13995.2v.9h-3.6v4.2h2.8v.9h-2.8v5.2h-.9v-11.2h4.5zM12299.4-13986.2c0 .5-.1.9-.3 1.2-.2.3-.4.5-.7.7-.3.2-.5.3-.8.3-.3.1-.5.1-.7.1-.2 0-.4 0-.7-.1-.3-.1-.5-.2-.8-.3-.3-.2-.5-.4-.7-.7s-.3-.7-.3-1.2v-3.7c0-.5.1-.9.3-1.2.2-.3.4-.5.7-.7s.5-.3.8-.3c.3-.1.5-.1.7-.1.2 0 .4 0 .7.1.3.1.5.2.8.3s.5.4.7.7c.2.3.3.7.3 1.2v3.7zm-.8-.1v-3.5c0-.4-.1-.6-.2-.8s-.3-.4-.5-.5c-.2-.1-.4-.2-.6-.2-.2 0-.4-.1-.5-.1s-.3 0-.5.1c-.2 0-.4.1-.6.2-.2.1-.3.3-.5.5s-.2.5-.2.8v3.5c0 .4.1.6.2.8s.3.4.5.5c.2.1.4.2.6.2.2 0 .4.1.5.1s.3 0 .5-.1c.2 0 .4-.1.6-.2s.3-.3.5-.5.2-.5.2-.8zM12301.5-13985.2c-.1-.3-.2-.5-.2-.8v-6h.8v5.7c0 .3 0 .5.1.7s.2.4.3.5c.1.1.3.2.5.3.2.1.3.1.5.1.3 0 .7-.1 1-.2s.6-.3.8-.4v-6.8h.8v7.2l.4.3-.6.6-.5-.5c-.3.2-.6.3-1 .4-.4.1-.7.1-.9.1-.4 0-.8-.1-1.1-.3-.4-.1-.7-.4-.9-.9zM12312.3-13991.5l-.4.7c-.2-.1-.3-.2-.4-.2-.1-.1-.2-.1-.3-.1-.1 0-.2 0-.3-.1h-.3c-.2 0-.4 0-.7.1s-.6.3-.8.5v6.6h-.8v-7.1l-.4-.4.6-.6.6.5c.3-.3.6-.5.9-.5.3-.1.5-.1.7-.1.2 0 .4 0 .7.1.1.2.5.3.9.6zM12318.2-13990.8c.1.3.2.5.2.8v6h-.8v-5.7c0-.5-.1-1-.4-1.2s-.6-.4-1-.4c-.2 0-.5 0-.8.1-.3.1-.7.2-1.1.5v6.8h-.8v-7.2l-.4-.3.6-.6.5.5c.6-.3 1.1-.5 1.7-.5.5 0 .9.1 1.3.3s.7.4 1 .9zM12324.9-13984.8l.3.3-.6.6-.4-.4c-.3.2-.7.3-1.1.4s-.7.1-.9.1c-.3 0-.6-.1-.8-.2-.3-.1-.5-.3-.7-.5-.2-.2-.3-.5-.4-.7s-.2-.6-.2-.9v-.9c0-.3.1-.6.2-.9.1-.3.3-.5.4-.7.2-.2.4-.4.7-.5.3-.1.5-.2.8-.2h.3c.2 0 .3 0 .5.1.2 0 .4.1.5.1s.3.1.5.2v-.5c0-.2 0-.5-.1-.7s-.2-.5-.4-.6c-.1-.2-.3-.3-.5-.5-.2-.1-.4-.2-.7-.2-.1 0-.2 0-.5.1s-.4.1-.7.2c-.3.1-.6.1-.9.2l-.2-.8c.4-.1.7-.2 1-.2.3-.1.5-.1.8-.2.2-.1.4-.1.5-.1.3 0 .7.1 1 .2s.6.4.8.6c.2.3.4.6.5.9.1.3.2.7.2 1l.1 4.7zm-.8-3.1l-.1-.1c-.1-.1-.2-.1-.4-.2s-.4-.1-.6-.2-.5-.1-.7-.1c-.2 0-.4 0-.5.1-.2.1-.3.2-.4.3-.1.1-.2.3-.3.4-.1.2-.1.3-.1.5v1c0 .2 0 .4.1.5.1.2.2.3.3.4.1.1.3.2.4.3.2.1.3.1.5.1s.3 0 .6-.1c.2-.1.4-.1.6-.2.2-.1.5-.2.7-.3v-2.4zM12326.8-13995.2h.8v1.2h-.8v-1.2zm0 3.2h.8v8h-.8v-8zM12334.1-13986.2c0 .8-.2 1.4-.6 1.8s-.9.6-1.5.6h-.6c-.2 0-.4-.1-.6-.2l-1.3-.5.3-.7 1.3.5c.2.1.3.1.5.1h.4c.4 0 .7-.1.9-.4.3-.3.4-.7.4-1.2 0-.2 0-.4-.1-.6-.1-.2-.2-.3-.3-.4-.1-.1-.3-.2-.4-.2-.2 0-.3-.1-.5-.1-.4 0-.7 0-1-.1-.3-.1-.6-.2-.8-.4-.2-.2-.4-.4-.5-.7-.1-.3-.2-.7-.2-1.1 0-.8.2-1.4.6-1.8.4-.4.9-.6 1.6-.6.2 0 .4 0 .6.1.2 0 .4.1.6.2l.5.2-.3.7c-.3-.1-.5-.2-.6-.2-.2 0-.3-.1-.4-.1h-.2H12331.6c-.4 0-.7.1-1 .4-.3.3-.4.7-.4 1.2 0 .2 0 .4.1.6.1.2.2.3.4.4.1.1.3.2.5.3.2.1.3.1.5.1.3 0 .6 0 .9.1.3.1.6.2.8.3.2.2.4.4.5.6s.2.7.2 1.1zM12335.4-13989.9c0-.3.1-.6.2-.9s.3-.5.5-.7c.2-.2.4-.4.7-.5.3-.1.5-.2.9-.2h.5c.3 0 .6.1.8.2.3.1.5.3.7.5.2.2.4.4.5.7s.2.6.2.9v.5c0 .4-.1.8-.2 1.1-.2.3-.4.6-.7.7-.3.2-.6.3-1 .4s-.8.1-1.2.1h-1v1c.1.4.3.8.6 1 .3.3.7.4 1.1.4 0 0 .2 0 .4-.1s.5-.1.7-.2c.3-.1.6-.1 1-.2l.2.8c-.4.1-.8.2-1.1.2-.3.1-.5.1-.8.1-.3 0-.4.1-.5.1-.3 0-.7-.1-1-.2-.3-.1-.6-.3-.8-.5-.2-.2-.4-.5-.6-.8-.1-.3-.2-.6-.2-1v-3.4zm2.7 2c.2 0 .4 0 .6-.1.2-.1.3-.2.4-.3s.2-.3.3-.5c.1-.2.1-.4.1-.5v-.7c0-.3 0-.5-.1-.6-.1-.2-.2-.3-.4-.4-.2-.1-.3-.2-.5-.2s-.4-.1-.6-.1c-.2 0-.4 0-.6.1-.2.1-.3.2-.5.3s-.3.3-.3.4-.1.4-.1.6v2.1l1.7-.1z" transform="translate(-10750 13999)"></path></g><g class="st2"><path class="st1" d="M12294.2-13967.3v-8.6c0-.4 0-.7.1-1 .1-.3.2-.5.4-.6.2-.2.4-.3.6-.4.2-.1.5-.1.7-.1h.3v.9h-.2c-.3 0-.6.1-.8.2-.2.2-.3.5-.3.9v8.8c0 .4.1.7.3.9.2.2.5.2.8.2h.2v.9h-.3c-.3 0-.5 0-.7-.1-.2-.1-.4-.2-.6-.4-.2-.2-.3-.4-.4-.6s-.1-.6-.1-1zM12301.1-13971.9c.2-.2.3-.5.4-.8.1-.3.1-.5.1-.8 0-.3-.1-.6-.2-.8-.1-.3-.2-.5-.4-.7-.1-.2-.3-.4-.5-.5-.2-.1-.5-.2-.7-.2h-.2c-.1 0-.2 0-.3.1s-.3.1-.6.2c-.2.1-.5.2-.9.4l-.4-.8 1.2-.5c.2-.1.3-.1.6-.2.2 0 .4-.1.6-.1.4 0 .7.1 1 .2s.6.4.8.6c.2.3.4.6.5.9s.2.7.2 1.2c0 .4 0 .7-.1 1-.1.3-.2.6-.5 1-.3.5-.6 1-1 1.6-.3.5-.7 1-1 1.5-.4.5-.7 1.1-1.1 1.6h3.5v.9h-4.4v-1l3.4-4.8zM12310.4-13965.9h-.5c-.3 0-.6-.1-.8-.2-.3-.1-.5-.3-.7-.5-.2-.2-.3-.4-.5-.7-.1-.3-.2-.6-.2-.9v-6c0-.4.1-.7.2-1 .1-.3.3-.6.5-.8.2-.2.5-.4.8-.5.3-.1.6-.2 1-.2h.3c.1 0 .3.1.5.1s.4.1.7.2l-.2.8c-.2-.1-.4-.1-.6-.1-.1 0-.3-.1-.4-.1h-.3c-.5 0-.9.1-1.2.4s-.5.7-.5 1.2v1.9c.1-.1.3-.2.5-.2.2-.1.4-.1.5-.1.2 0 .3-.1.5-.1h.4c.3 0 .6.1.8.2s.5.3.7.5.3.4.5.7c.1.3.2.6.2.9v2.3c0 .3-.1.6-.2.9s-.3.5-.5.7-.4.4-.7.5c-.3.1-.5.1-.8.1zm0-5.9h-.5c-.4 0-.7.1-.9.4-.3.3-.4.6-.4 1v2.4c0 .5.2.8.5 1s.7.3 1.1.3c.2 0 .4 0 .6-.1s.4-.1.5-.2c.1-.1.3-.2.3-.4.1-.2.1-.4.1-.6v-2.4c0-.4-.1-.7-.4-1-.3-.3-.6-.4-.9-.4zM12314.1-13975.8l1.1-.5c.2-.1.4-.1.6-.2.3-.1.5-.1.6-.1.4 0 .7.1 1 .2.3.1.6.4.8.6s.4.6.5.9c.1.4.2.7.2 1.2 0 .4-.1.8-.2 1.2s-.4.7-.8 1l.6.6c.2.2.2.4.3.6.1.2.1.4.1.7v.7c0 .4-.1.8-.2 1.2-.1.4-.3.7-.5.9-.2.3-.5.5-.8.6-.3.2-.7.2-1 .2-.2 0-.3 0-.6-.1-.2 0-.4-.1-.6-.2l-1.1-.4.2-.9 1.3.6c.1 0 .2.1.3.1h.3c.3 0 .5-.1.7-.2.2-.1.4-.3.6-.5s.3-.4.4-.7c.1-.3.1-.5.2-.8 0-.3 0-.6-.1-.8s-.2-.5-.3-.7-.3-.4-.5-.5c-.2-.1-.5-.2-.8-.2h-.9v-.8h.9c.6 0 1.1-.2 1.3-.5.3-.4.4-.8.4-1.4 0-.3-.1-.5-.2-.8-.1-.2-.3-.4-.4-.6-.2-.2-.3-.3-.6-.4-.2-.1-.4-.1-.6-.1h-.4c-.2 0-.3.1-.4.1l-1.2.5-.2-.5zM12324.1-13971.9c.2-.2.3-.5.4-.8.1-.3.1-.5.1-.8 0-.3-.1-.6-.2-.8-.1-.3-.2-.5-.4-.7s-.3-.4-.5-.5c-.2-.1-.5-.2-.7-.2h-.2c-.1 0-.2 0-.3.1s-.3.1-.6.2c-.2.1-.5.2-.9.4l-.4-.8 1.2-.5c.2-.1.3-.1.6-.2s.4-.1.6-.1c.4 0 .7.1 1 .2.3.2.6.4.8.6.2.3.4.6.5.9.1.4.2.7.2 1.2 0 .4 0 .7-.1 1-.1.3-.2.6-.5 1-.3.5-.6 1-1 1.6-.3.5-.7 1-1 1.5-.4.5-.7 1.1-1.1 1.6h3.5v.9h-4.4v-1l3.4-4.8zM12331.4-13972c0-.2 0-.4-.1-.5-.1-.2-.2-.3-.4-.4-.2-.1-.3-.2-.5-.3-.2-.1-.4-.1-.6-.1h-.4c-.2 0-.3.1-.5.1s-.3.1-.5.2c-.1.1-.3.1-.4.2v6.8h-.8v-7.2l-.4-.4.6-.6.5.5c.3-.1.6-.3.8-.4.3-.1.6-.1.8-.1.5 0 .9.1 1.3.3.4.2.7.5.8.9.1-.3.3-.5.5-.6.2-.2.4-.3.6-.4.2-.1.4-.2.6-.2s.4-.1.6-.1c.4 0 .7.1 1 .2.3.1.5.3.7.5.2.2.3.5.4.7.1.3.1.5.1.8v5.9h-.8v-5.8c0-.2 0-.4-.1-.6 0-.2-.1-.3-.2-.5s-.2-.2-.4-.3c-.2-.1-.4-.1-.6-.1-.7 0-1.2.2-1.5.6-.3.4-.4.9-.4 1.6v5.2h-.8v-5.9zM12339.9-13966.3c-.1.3-.2.5-.4.6-.2.2-.4.3-.6.4s-.5.1-.7.1h-.3v-.9h.2c.3 0 .6-.1.8-.2.2-.2.3-.5.3-.9v-8.8c0-.4-.1-.7-.3-.9-.2-.2-.5-.2-.8-.2h-.2v-.9h.3c.3 0 .5 0 .7.1s.4.2.6.4c.2.2.3.4.4.6.1.3.1.6.1 1v8.6c0 .4 0 .7-.1 1z" transform="translate(-10750 13999)"></path></g><path class="st1" d="M60.7 66.4c-2.1 0-3.8-.1-3.9-.1l-2.9-.2 1.8-2.3c2.2-2.7 4.6-5.2 7.3-7.4H47c-13.1 0-20-11-20.9-21.8l-.1-1.7h75.4v1.6c-.2 4-1.3 7.8-3.2 11.3-2.7 4.8-8.3 10.4-19.5 10.7-2.5 4.5-6.6 7.8-11.4 9.3-2.2.5-4.4.7-6.6.6zm-.5-3.1h.5c1.9.1 3.7-.1 5.5-.6 4.3-1.3 7.9-4.3 9.9-8.3l-6.9 1.9c-2.8.8-6.5 4.3-9 7zM29.4 35.9c1.7 12.8 10.5 17.5 17.7 17.5h30.6c8.4 0 14.4-3.1 17.9-9.1 1.4-2.6 2.3-5.4 2.7-8.3l-68.9-.1z" transform="translate(-3.8 108.098)"></path><path class="st1" d="M67.9 55.8l-2.4-1.9c8.9-11.1 19.3-16.1 33.6-16.1v3.1c-13.3 0-22.9 4.6-31.2 14.9z" transform="translate(-3.8 108.098)"></path><path class="st1" d="M77 55.5l-2.1-2.2c6.9-6.7 11.3-9.9 21.9-9.9v3c-9.5.1-13.3 2.8-19.8 9.1zM26.2 34.8c-.1-.5-.2-.9-.4-1.4-11.9-.1-20.3-8.6-20.6-9L3.8 23l1.6-1c3.3-1.9 7.2-2.6 11-1.9 3.1.7 5.8 2.4 7.9 4.8 6.1-4.8 14.4-5.9 21.6-2.8l1.8.9-1.4 1.5c-4.7 4.8-10.8 7.9-17.4 8.8.1.3.1.5.2.8l-2.9.7zM9 23.8c4.4 3.7 9.8 5.9 15.5 6.5-.4-.8-.9-1.6-1.5-2.4-1.8-2.4-4.3-4.1-7.2-4.8-2.3-.4-4.6-.1-6.8.7zm17.3 3.5c.6 1 1.1 2 1.6 3 5.3-.6 10.4-2.8 14.4-6.2-5.5-1.6-11.4-.4-16 3.2zM72.2 43.9c0 1-.8 1.8-1.8 1.8s-1.8-.8-1.8-1.8.8-1.8 1.8-1.8c.5 0 .9.2 1.2.5.4.3.6.8.6 1.3" transform="translate(-3.8 108.098)"></path></svg>